<svg version="1.1" viewBox="0.0 0.0 339.53805774278214 188.01837270341207" fill="none" stroke="none" stroke-linecap="square" stroke-miterlimit="10" xmlns:xlink="http://www.w3.org/1999/xlink" xmlns="http://www.w3.org/2000/svg"><clipPath id="p.0"><path d="m0 0l339.53806 0l0 188.01837l-339.53806 0l0 -188.01837z" clip-rule="nonzero"/></clipPath><g clip-path="url(#p.0)"><path fill="#000000" fill-opacity="0.0" d="m0 0l339.53806 0l0 188.01837l-339.53806 0z" fill-rule="evenodd"/><path fill="#000000" d="m4.0419946 39.811024l0 0c0 -10.993511 8.912001 -19.905512 19.905512 -19.905512l0 0c5.27927 0 10.342316 2.0971813 14.075321 5.8301888c3.7330093 3.7330074 5.8301926 8.796053 5.8301926 14.075323l0 0c0 10.993511 -8.912003 19.90551 -19.905514 19.90551l0 0c-10.99351 0 -19.905512 -8.911999 -19.905512 -19.90551z" fill-rule="evenodd"/><path stroke="#000000" stroke-width="1.0" stroke-linejoin="round" stroke-linecap="butt" d="m4.0419946 39.811024l0 0c0 -10.993511 8.912001 -19.905512 19.905512 -19.905512l0 0c5.27927 0 10.342316 2.0971813 14.075321 5.8301888c3.7330093 3.7330074 5.8301926 8.796053 5.8301926 14.075323l0 0c0 10.993511 -8.912003 19.90551 -19.905514 19.90551l0 0c-10.99351 0 -19.905512 -8.911999 -19.905512 -19.90551z" fill-rule="evenodd"/><path fill="#000000" fill-opacity="0.0" d="m43.85302 39.811024l212.62991 0" fill-rule="evenodd"/><path stroke="#000000" stroke-width="2.0" stroke-linejoin="round" stroke-linecap="butt" d="m43.85302 39.811024l200.62991 0" fill-rule="evenodd"/><path fill="#000000" stroke="#000000" stroke-width="2.0" stroke-linecap="butt" d="m244.48294 43.114487l9.076187 -3.303463l-9.076187 -3.3034668z" fill-rule="evenodd"/><path fill="#000000" fill-opacity="0.0" d="m254.47679 40.09984c32.666763 32.147293 10.688889 95.36424 -9.951752 136.03735" fill-rule="evenodd"/><path stroke="#000000" stroke-width="2.0" stroke-linejoin="round" stroke-linecap="butt" d="m254.47679 40.09984c16.333359 16.073647 19.0056 39.914703 15.014389 64.821495c-1.995575 12.453392 -5.6570435 25.17321 -10.10965 37.32177c-2.2263184 6.07428 -4.6503754 12.005722 -7.162903 17.689651c-0.6281433 1.4209747 -1.261795 2.826477 -1.8992767 4.2148895c-0.1593628 0.34709167 -0.318985 0.6931305 -0.47880554 1.0380707l-0.073135376 0.15715027" fill-rule="evenodd"/><path fill="#000000" stroke="#000000" stroke-width="2.0" stroke-linecap="butt" d="m246.79585 163.8997l-0.993515 9.607452l6.9366302 -6.721115z" fill-rule="evenodd"/><path fill="#000000" fill-opacity="0.0" d="m94.17191 0l101.76379 0l0 39.811024l-101.76379 0z" fill-rule="evenodd"/><path fill="#000000" d="m118.57816 18.118126q0.03125 0.09375 0.03125 0.21875q0 0.09375 -0.0625 0.15625q-0.0625 0.0625 -0.140625 0.09375q-0.0625 0.015625 -0.09375 0.03125q-0.53125 0.171875 -0.859375 0.171875q-0.234375 0 -0.546875 -0.125q-0.25 -0.203125 -0.59375 -0.296875q-0.328125 -0.109375 -1.375 -0.171875q-0.703125 0.0625 -1.234375 0.0625q-0.15625 0.890625 -0.546875 1.59375q-0.09375 0.453125 -0.265625 0.8125q-0.171875 0.484375 -0.140625 0.546875q-0.078125 0.09375 -0.46875 1.21875q-0.375 1.109375 -0.703125 2.171875q-0.25 0.734375 -0.359375 1.078125q-0.125 0.234375 -0.3125 0.75q-0.171875 0.515625 -0.25 0.734375l-0.59375 1.65625q-0.1875 0.359375 -0.46875 1.140625q-0.28125 0.78125 -0.453125 1.40625l-0.234375 0.84375q-0.125 0.421875 -0.203125 0.640625q-0.078125 0.21875 -0.125 0.234375q-0.046875 0.03125 -0.25 0.015625q-0.1875 0 -0.421875 -0.3125q-0.21875 -0.296875 -0.21875 -0.578125q0 -0.53125 0.359375 -1.78125q0.375 -1.25 0.71875 -1.984375q0.09375 -0.4375 0.171875 -0.703125q0.09375 -0.265625 0.109375 -0.390625q0.078125 -0.09375 0.234375 -0.5q0.15625 -0.421875 0.25 -0.78125q0.078125 -0.4375 1.484375 -4.828125l0.171875 -0.5q0.21875 -0.359375 0.40625 -0.921875q0.1875 -0.125 0.1875 -0.5q0 -0.078125 0.078125 -0.1875q0.09375 -0.125 0.09375 -0.171875q0.046875 -0.046875 0.109375 -0.21875q0.0625 -0.1875 0.15625 -0.28125l0 -0.03125l-0.390625 0.03125l-1.171875 0.109375l-0.53125 0.046875q-1.390625 0.125 -1.59375 0.171875q-0.734375 0.046875 -1.03125 -0.0625q-0.296875 -0.125 -0.203125 -0.484375q0.078125 -0.296875 0.296875 -0.4375q0.234375 -0.140625 0.71875 -0.21875q0.21875 -0.046875 0.828125 -0.140625l0.65625 -0.125l0.8125 -0.09375q1.390625 -0.21875 2.953125 -0.28125q0.65625 -0.03125 1.09375 -0.0625q0.4375 -0.03125 0.59375 -0.0625q0.328125 0.03125 1.078125 0.125q0.765625 0.09375 1.09375 0.21875q0.53125 0.109375 0.78125 0.328125q0.25 0.21875 0.375 0.625zm-3.4748993 13.078125q-0.203125 -0.140625 -0.28125 -0.25q-0.0625 -0.125 -0.0625 -0.375q0 -0.21875 0.03125 -0.359375q0.0625 -0.8125 0.359375 -1.890625l0.125 -0.484375q0.0625 -0.59375 0.828125 -2.515625q0.765625 -1.921875 1.25 -2.625q0.1875 -0.109375 0.40625 -0.109375q0.3125 0 0.53125 0.21875q0.140625 0.09375 0.140625 0.359375q0 0.234375 -0.1875 0.703125q-0.171875 0.46875 -0.59375 1.375q-0.109375 0.203125 -0.34375 0.734375q-0.21875 0.515625 -0.21875 0.609375q0 0.046875 0.03125 0.046875q0.046875 0 0.09375 -0.03125q0.046875 -0.03125 0.09375 -0.0625q0.265625 -0.453125 1.28125 -1.234375q1.03125 -0.796875 1.40625 -1.0q0.171875 -0.09375 0.4375 -0.1875q0.265625 -0.09375 0.359375 -0.140625q0.375 -0.1875 0.90625 -0.1875q0.34375 0 0.59375 0.109375q0.25 0.09375 0.34375 0.3125q0.03125 0.171875 0.125 0.265625q0.109375 0.09375 0.171875 0.125q0.0625 0 0.078125 0.0625q0.03125 0.0625 0.03125 0.078125q0 0.171875 -0.1875 0.203125q-0.1875 0.03125 -0.703125 0.0625q-0.265625 0.015625 -0.546875 0.125q-0.28125 0.09375 -0.578125 0.234375q-1.34375 0.765625 -2.0 1.203125q-0.65625 0.421875 -1.328125 1.171875q-0.265625 0.28125 -0.703125 1.03125q-0.171875 0.171875 -0.359375 0.875q-0.171875 0.703125 -0.171875 0.875q-0.015625 0.078125 -0.09375 0.28125q-0.0625 0.203125 -0.21875 0.390625q-0.28125 0.390625 -0.46875 0.390625q-0.21875 0 -0.578125 -0.390625zm8.223099 -0.015625q-0.0625 -0.15625 -0.21875 -0.296875q-0.15625 -0.15625 -0.15625 -0.21875q0 -0.25 -0.125 -0.40625q-0.046875 -0.046875 -0.046875 -0.203125q0 -0.390625 0.375 -1.3125q0.375 -0.921875 0.96875 -2.0q0.140625 -0.15625 0.359375 -0.515625q0.234375 -0.359375 0.3125 -0.40625q0 -0.09375 0.0625 -0.171875q0.078125 -0.09375 0.171875 -0.09375l0 -0.140625q0 -0.21875 0.796875 -1.046875q0.796875 -0.828125 1.296875 -1.140625q0.59375 -0.40625 1.2187576 -0.40625q0.4375 0 0.75 0.25q0.125 0.140625 1.109375 1.03125l0.875 0.78125l-0.421875 1.203125q-0.21875 0.65625 -0.21875 1.171875q0 0.921875 0.53125 1.75q0.109375 0.265625 0.46875 0.515625q0.375 0.234375 0.734375 0.28125q0.515625 0.09375 0.515625 0.53125q0 0.484375 -0.421875 0.578125q-0.09375 0.015625 -0.296875 0.015625q-1.40625 0 -2.4375 -1.984375q-0.109375 -0.140625 -0.265625 -0.53125q-0.140625 -0.390625 -0.171875 -0.53125q-0.140625 0.203125 -0.359375 0.46875q-0.21875 0.25 -0.40625 0.453125q-2.6250076 2.609375 -4.1250076 2.609375q-0.484375 0 -0.875 -0.234375zm0.875 -1.34375q0 0.109375 0.25 0.0625q0.25 -0.046875 0.625 -0.234375q0.375 -0.1875 0.75 -0.5q2.0625 -1.78125 2.9843826 -3.09375l0.515625 -0.875q-0.234375 -0.5 -0.5 -0.71875q-0.265625 -0.234375 -0.484375 -0.234375q-0.5000076 0 -1.5781326 1.265625q-1.078125 1.25 -1.96875 2.953125q-0.21875 0.40625 -0.390625 0.828125q-0.15625 0.421875 -0.203125 0.546875zm16.894234 1.921875q-0.359375 0 -0.734375 -0.5625q-0.375 -0.578125 -0.375 -1.125q0 -0.390625 0.171875 -1.375q0.1875 -1.0 0.453125 -1.953125q0.140625 -0.4375 0.140625 -0.625q0 -0.125 -0.09375 -0.125q-0.09375 0 -0.578125 0.28125q-0.765625 0.40625 -1.046875 0.75q-0.125 0.09375 -0.390625 0.34375q-0.265625 0.234375 -0.484375 0.375q-0.453125 0.359375 -1.21875 1.046875q-0.75 0.6875 -1.21875 1.15625q-0.15625 0.265625 -0.40625 0.265625q-0.078125 0 -0.21875 -0.046875q-0.296875 -0.0625 -0.515625 -0.3125q-0.203125 -0.265625 -0.203125 -0.546875q0 -0.359375 0.40625 -1.515625q0.421875 -1.15625 1.046875 -2.515625q0.109375 -0.171875 0.171875 -0.484375q0.078125 -0.328125 0.078125 -0.625q0 -0.171875 0.0625 -0.375q0.078125 -0.21875 0.171875 -0.3125q0.078125 -0.125 0.21875 -0.125q0.3125 0 0.53125 0.359375q0.375 0.359375 0.375 0.90625q0 0.46875 -0.265625 1.1875q-0.15625 0.328125 -0.25 0.53125q-0.078125 0.203125 -0.109375 0.28125q0.078125 0 0.625 -0.34375l0.609375 -0.359375l0.71875 -0.546875q0.546875 -0.4375 0.625 -0.4375q0.09375 0 0.234375 -0.0625q0.140625 -0.078125 0.234375 -0.171875q0.078125 -0.078125 0.140625 -0.09375q0.0625 -0.03125 0.078125 -0.03125q0.03125 0 0.125 -0.015625q0.09375 -0.03125 0.171875 -0.09375q0.09375 -0.109375 0.328125 -0.109375q0.34375 0 0.671875 0.21875q0.34375 0.21875 0.34375 0.484375q0 0.078125 0.046875 0.140625q0.046875 0.046875 0.0625 0.078125q0.109375 0 0.171875 0.25q0.078125 0.25 0.078125 0.609375q0 0.53125 -0.125 0.890625q0 0.265625 -0.09375 0.671875q-0.09375 0.40625 -0.125 0.53125l-0.140625 0.625q-0.3125 0.953125 -0.3125 1.578125q0 0.484375 0.1875 0.75q0.046875 0.09375 0.046875 0.1875q0 0.140625 -0.109375 0.265625q-0.09375 0.125 -0.3125 0.125zm5.5655975 -0.0625q-1.203125 0 -1.75 -0.859375q-0.171875 -0.1875 -0.171875 -0.484375q0 -0.140625 0.0625 -0.25q0.0625 -0.109375 0.15625 -0.109375q0.125 0 0.265625 0.171875q0.328125 0.1875 0.953125 0.1875q0.671875 0 1.328125 -0.234375q0.765625 -0.328125 0.421875 -0.53125l0.03125 0q-0.9375 -0.234375 -1.859375 -0.921875q-0.921875 -0.6875 -1.015625 -1.234375q-0.078125 -0.28125 -0.078125 -0.59375q0 -0.609375 0.265625 -1.203125q0.265625 -0.609375 0.71875 -1.109375q0.71875 -0.453125 0.9375 -0.5l0 0.03125q0.40625 -0.421875 0.984375 -0.703125q0.59375 -0.28125 1.53125 -0.59375l0.359375 -0.0625l0.484375 -0.046875q0.015625 0.03125 0.109375 0.0625q0.109375 0.015625 0.203125 0.046875q0.140625 0.0625 0.234375 0.0625q0.453125 0.078125 0.796875 0.5625q0.359375 0.46875 0.3125 0.90625q-0.046875 0.484375 -0.28125 0.828125q-0.21875 0.34375 -0.53125 0.390625q0.015625 -0.015625 -0.109375 -0.09375q-0.109375 -0.078125 -0.1875 -0.125l-0.0625 0.046875q0 -0.015625 -0.015625 -0.078125q-0.015625 -0.0625 -0.0625 -0.125q-0.078125 -0.15625 -0.078125 -0.359375l0.03125 -0.359375l0.046875 -0.25q0 -0.0625 -0.09375 -0.09375q-0.09375 -0.046875 -0.265625 -0.046875l-0.1875 -0.03125q-0.390625 0 -0.953125 0.203125q-0.546875 0.1875 -0.90625 0.46875q-0.8125 0.53125 -1.21875 0.9375q-0.390625 0.390625 -0.625 0.921875q-0.28125 0.40625 -0.28125 0.59375q0 0.265625 0.359375 0.53125q0.375 0.265625 1.21875 0.640625q0.671875 0.296875 1.09375 0.609375q0.421875 0.3125 0.5625 0.6875q0.03125 0.046875 0.03125 0.203125q0 0.15625 -0.0625 0.203125q0.0625 0.0625 0.0625 0.078125l0 -0.015625q0.09375 0.1875 0.09375 0.296875q0 0.390625 -0.484375 0.71875q-0.484375 0.328125 -1.21875 0.46875l0.015625 0q-0.578125 0.15625 -1.171875 0.15625zm6.6996 0.34375q-0.078125 0.03125 -0.25 0.03125q-0.375 0 -0.59375 -0.390625q-0.21875 -0.390625 -0.21875 -1.0625q0 -0.546875 0.140625 -1.265625q0.265625 -0.703125 0.265625 -1.015625q0.078125 -0.453125 0.5 -1.640625q0.421875 -1.1875 0.53125 -1.421875q0.09375 0 0.171875 -0.15625q0.078125 -0.15625 0.078125 -0.34375q0 -0.21875 0.078125 -0.4375q0.078125 -0.234375 0.1875 -0.34375q0 -0.0625 0.046875 -0.25q0.0625 -0.203125 0.0625 -0.265625q0 -0.046875 0.0625 -0.171875q0.0625 -0.140625 0.0625 -0.21875q0.375 -0.75 1.328125 -3.34375q0.96875 -2.609375 0.96875 -2.890625q0 -0.390625 0.390625 -0.390625q0.125 -0.125 0.375 -0.125l0.390625 0.390625q0.171875 0.171875 0.21875 0.359375q0.046875 0.171875 0.046875 0.53125q0 0.359375 -0.09375 0.625q-0.09375 0.265625 -0.484375 1.078125q-0.078125 0.171875 -0.203125 0.40625q-0.109375 0.21875 -0.25 0.546875q-0.046875 0.125 -0.390625 0.875q-0.234375 0.46875 -0.234375 0.546875q0 0.078125 -0.09375 0.3125q-0.09375 0.21875 -0.171875 0.453125q-0.1875 0.390625 -0.609375 1.359375q-0.421875 0.96875 -0.421875 1.0625q0 0.265625 -0.125 0.390625q-0.0625 0 -0.09375 0.109375q-0.015625 0.109375 -0.015625 0.15625q0 0.234375 -0.390625 1.265625l-0.21875 0.703125q-0.453125 1.5625 -0.640625 2.28125q-0.171875 0.71875 -0.171875 1.21875q0 0.59375 -0.046875 0.765625q-0.03125 0.171875 -0.1875 0.265625zm5.3684845 -0.703125q-0.234375 0.0625 -0.421875 0.0625q-0.3125 0 -0.578125 -0.0625q-0.265625 -0.0625 -0.265625 -0.15625q0 -0.078125 -0.03125 -0.09375q-0.015625 -0.03125 -0.09375 -0.03125q-0.015625 -0.03125 -0.140625 -0.125q-0.125 -0.09375 -0.296875 -0.15625q-0.203125 -0.34375 -0.203125 -0.71875q0 -0.421875 0.203125 -1.28125q0.078125 -0.765625 0.71875 -1.921875q0.65625 -1.15625 1.53125 -2.1875q0.875 -1.03125 1.578125 -1.4375q0.359375 -0.359375 0.90625 -0.359375q0.4375 0 0.8125 0.21875q0.34375 0.1875 0.703125 0.65625q0.375 0.453125 0.59375 0.921875q0.09375 0.359375 0.09375 0.703125q0 0.359375 -0.09375 1.125q-0.109375 0.4375 -0.203125 1.0625q-0.078125 0.625 -0.078125 1.078125q-0.046875 0.328125 0.046875 0.546875q0.09375 0.203125 0.265625 0.203125q0.109375 0 0.265625 -0.078125q0.234375 -0.125 0.515625 -0.125q0.265625 0 0.4375 0.15625q0.171875 0.140625 0.171875 0.421875q0 0.4375 -0.59375 0.875q-0.578125 0.421875 -1.109375 0.421875q-0.359375 0 -0.671875 -0.5625q-0.296875 -0.5625 -0.578125 -1.453125l-0.140625 -0.546875l-1.03125 0.984375l-0.5625 0.546875q-0.375 0.390625 -0.421875 0.453125q-0.265625 0.453125 -1.328125 0.859375zm0.078125 -1.40625q0.578125 -0.34375 1.40625 -1.171875q0.84375 -0.84375 1.390625 -1.609375q0.75 -0.984375 0.9375 -1.953125q-0.09375 -0.28125 -0.3125 -0.5625q-0.203125 -0.296875 -0.375 -0.328125q-0.484375 0 -1.015625 0.5625q-0.515625 0.546875 -1.25 1.53125l-0.78125 1.171875q-0.140625 0.203125 -0.515625 1.03125q-0.359375 0.828125 -0.359375 0.984375q0 0.53125 0.3125 0.53125q0.25 0 0.5625 -0.1875zm10.514603 2.0625q-0.34375 -0.09375 -0.5625 -0.21875q-0.21875 -0.125 -0.578125 -0.453125q-0.421875 -0.578125 -0.5625 -1.0625q-0.125 -0.5 -0.125 -1.578125q0 -0.578125 0.640625 -3.171875q-0.046875 0.171875 0.171875 -0.6875q0.078125 -0.265625 -0.1875 -0.328125q-0.265625 -0.078125 -0.75 -0.078125q-0.40625 0 -0.484375 -0.0625q-0.0625 -0.015625 -0.078125 -0.0625q-0.015625 -0.046875 -0.015625 -0.078125q0 -0.109375 -0.09375 -0.28125q-0.015625 -0.03125 -0.015625 -0.078125q0 -0.109375 0.125 -0.25q0.140625 -0.15625 0.328125 -0.171875q0.125 -0.03125 0.546875 -0.078125q0.4375 -0.046875 0.8125 -0.1875q0.390625 -0.15625 0.609375 -0.40625q0.3125 -0.796875 0.78125 -1.796875q0.484375 -1.0 0.65625 -1.1875q0.390625 -0.1875 0.53125 -0.1875q0.140625 0 0.234375 0.09375q0.09375 0.09375 0.265625 0.328125q0.03125 0.0625 0.125 0.1875q0.09375 0.109375 0.09375 0.234375q0 0.1875 -0.1875 0.578125q-0.171875 0.375 -0.703125 1.328125l-0.3125 0.609375q0.078125 0.015625 0.34375 0.015625q0.25 0 0.421875 -0.015625q0.53125 -0.09375 0.984375 -0.09375q0.234375 0 0.34375 0.015625q0.546875 0 0.796875 0.203125q0.25 0.203125 0.296875 0.6875q0.046875 0.265625 -0.09375 0.3125q-0.140625 0.046875 -0.8125 0.046875q-2.78125 0.125 -2.8125 0.21875q-0.09375 0.078125 -0.359375 0.84375q-0.265625 0.765625 -0.453125 1.453125q-0.3125 1.453125 -0.3125 2.546875q0 1.015625 0.28125 1.34375q0.125 0.125 0.46875 0.125q0.328125 0 0.71875 -0.125q0.40625 -0.140625 0.671875 -0.359375q0.421875 -0.359375 0.71875 -0.359375q0.140625 0 0.21875 0.09375q0.09375 0.078125 0.09375 0.203125q0 0.25 -0.296875 0.671875q-0.359375 0.546875 -0.953125 0.90625q-0.59375 0.359375 -1.15625 0.359375q-0.265625 0 -0.375 -0.046875zm6.6158447 -0.53125q-0.765625 -0.3125 -1.078125 -0.796875q-0.3125 -0.5 -0.3125 -1.390625q0 -0.421875 0.078125 -1.0l0.046875 -0.859375q0 -0.21875 -0.046875 -0.34375q-0.046875 -0.125 -0.21875 -0.265625q-0.046875 -0.046875 -0.25 -0.234375q-0.1875 -0.1875 -0.15625 -0.3125l-0.03125 -0.125q0 -0.171875 0.0625 -0.3125q0.0625 -0.140625 0.125 -0.140625q0.078125 0 0.1875 -0.03125q0.125 -0.046875 0.234375 -0.015625q0.328125 0 0.328125 0.140625q0.09375 0.1875 0.3125 0.03125q0.234375 -0.15625 0.453125 -0.609375q0.34375 -0.53125 1.0 -1.109375q0.65625 -0.59375 1.09375 -0.828125q0.171875 -0.09375 0.546875 -0.171875q0.390625 -0.09375 0.671875 -0.09375q0.4375 0 0.75 0.203125q0.328125 0.1875 0.671875 0.546875q0.453125 0.328125 0.453125 1.046875q0 0.5 -0.234375 1.03125q-0.109375 0.359375 -0.765625 0.921875q-0.65625 0.546875 -1.203125 0.765625q-0.671875 0.15625 -1.546875 0.15625q-0.5625 0 -0.734375 -0.09375q-0.296875 -0.15625 -0.40625 1.296875q-0.03125 0.171875 -0.03125 0.453125q0 0.421875 0.125 0.65625q0.015625 0.015625 0.15625 0.171875q0.15625 0.15625 0.359375 0.265625q0.21875 0.109375 0.46875 0.109375q0.21875 0 0.328125 -0.046875q0.265625 -0.0625 0.5 -0.265625q0.25 -0.21875 0.6875 -0.640625q0.375 -0.390625 0.546875 -0.53125q0.125 -0.21875 0.484375 -0.21875q0.09375 0 0.328125 0.046875q0.21875 0.171875 0.21875 0.359375q0 0.203125 -0.234375 0.71875q-0.125 0.25 -0.59375 0.671875q-0.46875 0.40625 -0.828125 0.65625q-0.75 0.40625 -1.484375 0.40625q-0.453125 0 -1.0625 -0.21875zm1.421875 -4.875q0.234375 -0.046875 0.6875 -0.109375q0.453125 -0.078125 0.75 -0.328125q0.3125 -0.25 0.71875 -0.875q0.078125 -0.1875 0.078125 -0.390625q0 -0.359375 -0.15625 -0.5q-0.15625 -0.171875 -0.375 -0.171875q-0.34375 0 -0.703125 0.296875q-0.234375 0.0625 -0.703125 0.53125q-0.46875 0.453125 -0.8125 0.90625q-0.328125 0.4375 -0.203125 0.5q-0.046875 0.078125 0.234375 0.109375q0.28125 0.03125 0.484375 0.03125z" fill-rule="nonzero"/><path fill="#000000" fill-opacity="0.0" d="m266.15353 79.04199l101.763794 0l0 39.811028l-101.763794 0z" fill-rule="evenodd"/><path fill="#000000" d="m287.43478 95.89449q2.140625 1.265625 2.140625 2.875q0 0.578125 -0.265625 1.21875q-0.375 0.96875 -1.9375 2.28125q-1.5625 1.296875 -2.90625 1.875q-0.53125 0.234375 -1.234375 0.484375q-0.6875 0.234375 -1.359375 0.453125q-0.484375 0.125 -0.953125 0.09375l0.046875 0.046875q0.546875 1.234375 2.125 2.984375q0.75 0.859375 2.046875 1.984375q1.296875 1.109375 2.234375 1.5625q0.09375 0.09375 0.09375 0.28125q0 0.21875 -0.140625 0.46875q-0.125 0.265625 -0.21875 0.28125q-0.046875 0.03125 -0.125 0.046875q-0.0625 0.03125 -0.171875 0.03125q-0.328125 0 -0.953125 -0.40625q-1.125 -0.671875 -2.1875 -1.578125q-1.046875 -0.90625 -2.296875 -2.34375q-0.5625 -0.640625 -0.890625 -1.125q-0.3125 -0.5 -0.671875 -1.34375l-0.046875 0.140625q-0.71875 2.453125 -2.1875 6.3125q-0.125 0.296875 -0.359375 0.296875q-0.265625 0 -0.640625 -0.3125q-0.046875 -0.046875 -0.171875 -0.171875q-0.125 -0.125 -0.171875 -0.21875q-0.046875 -0.078125 -0.046875 -0.171875q0 -0.21875 0.390625 -1.078125l0.28125 -0.640625q0.140625 -0.875 0.703125 -2.0q0.15625 -0.578125 1.9375 -4.890625l0.4375 -1.0625l0.265625 -0.625q0.640625 -1.625 1.75 -4.046875q0.109375 -0.359375 0.109375 -0.453125q0 -0.3125 -0.40625 -0.3125q-0.265625 -0.3125 -0.265625 -0.578125q0 -0.265625 0.25 -0.359375l1.25 -0.515625q0.828125 -0.1875 1.625 -0.1875q1.609375 0 2.921875 0.703125zm-3.734375 7.140625q1.71875 -0.78125 3.09375 -1.96875q1.375 -1.1875 1.296875 -2.328125q0 -0.453125 -0.484375 -0.953125q-0.484375 -0.5 -0.984375 -0.640625q-1.453125 -0.34375 -1.96875 -0.34375q-0.421875 0 -0.6875 0.1875q-0.25 0.171875 -0.34375 0.5625q0 0.0625 -0.3125 0.6875q-0.6875 1.515625 -0.890625 2.0625l-0.546875 1.140625q-0.765625 1.53125 -0.921875 1.921875q-0.15625 0.375 -0.03125 0.5q0.984375 -0.078125 2.78125 -0.828125zm7.2276 7.6875q-0.296875 0 -0.46875 -0.09375q-0.15625 -0.09375 -0.46875 -0.359375q-0.796875 -0.84375 -0.796875 -1.546875q0 -0.15625 0.03125 -0.234375q0.0625 -0.171875 0.046875 -0.328125q0 -0.171875 0 -0.21875q-0.109375 -0.09375 -0.109375 -0.125q0 -0.046875 0.046875 -0.078125q0.0625 -0.046875 0.078125 -0.09375q0.140625 0 0.09375 -0.265625q-0.046875 -0.1875 0.1875 -0.84375q0.25 -0.65625 0.609375 -1.21875q0.265625 -0.421875 0.78125 -1.0625q0.515625 -0.65625 0.921875 -1.0q0.578125 -0.5 1.03125 -0.734375q0.453125 -0.25 1.015625 -0.359375q0.46875 -0.125 0.640625 -0.125q0.171875 0 0.296875 0.09375q0.140625 0.078125 0.359375 0.296875q0.640625 0.28125 0.890625 0.734375q0.25 0.4375 0.25 1.375q0 1.5625 -1.265625 3.375q-0.546875 0.796875 -1.03125 1.21875q-0.484375 0.421875 -1.28125 0.890625q-0.5 0.359375 -0.921875 0.515625q-0.421875 0.15625 -0.9375 0.1875zm2.296875 -2.546875q0.578125 -0.640625 0.921875 -1.21875q0.34375 -0.578125 0.65625 -1.46875q0.125 -0.40625 0.125 -0.984375q0 -0.71875 -0.1875 -0.8125q-0.25 -0.125 -0.484375 -0.125q-0.53125 0 -1.109375 0.484375q-0.6875 0.59375 -1.25 1.46875q-0.546875 0.875 -1.125 2.171875q-0.234375 0.515625 -0.234375 0.984375q0 0.359375 0.171875 0.578125q0.1875 0.21875 0.5 0.21875q0.796875 0 2.015625 -1.296875zm6.4094543 2.734375q-0.390625 -0.0625 -0.78125 -0.5q-0.390625 -0.453125 -0.515625 -0.84375q0 -0.046875 -0.046875 -0.109375q-0.046875 -0.0625 -0.078125 -0.078125q-0.09375 -0.078125 -0.09375 -0.796875q0 -0.578125 0.0625 -1.1875q0.0625 -0.625 0.15625 -1.015625l0.4375 -1.265625l0.328125 -0.96875l0.65625 -1.390625l-0.96875 -0.265625q-0.171875 -0.015625 -0.28125 -0.15625q-0.09375 -0.15625 -0.09375 -0.28125q0 -0.1875 0.203125 -0.453125q0.203125 -0.28125 0.3125 -0.28125q0.078125 0.015625 0.390625 0.015625q0.71875 0 1.078125 -0.0625q0.234375 -0.09375 0.34375 -0.390625q0.09375 -0.1875 0.21875 -0.46875q0.140625 -0.296875 0.25 -0.53125q0.078125 -0.15625 0.234375 -0.453125q0.15625 -0.296875 0.390625 -0.6875q0.046875 -0.0625 0.21875 -0.328125q0.171875 -0.28125 0.40625 -0.484375q0.171875 -0.15625 0.40625 -0.15625q0.25 0 0.625 0.296875q0.046875 0.078125 0.125 0.203125q0.09375 0.109375 0.09375 0.21875q0 0.09375 -0.1875 0.40625q-0.140625 0.28125 -0.28125 0.515625q-0.125 0.21875 -0.21875 0.390625q-0.296875 0.484375 -0.421875 0.71875q-0.234375 0.3125 -0.234375 0.484375q0 0.171875 0.3125 0.171875q0.34375 0 1.125 -0.15625q0.34375 -0.046875 0.453125 -0.046875q0.84375 0 0.921875 0.703125q0.015625 0.140625 0.015625 0.328125q0 0.34375 -0.234375 0.421875q-0.21875 0.0625 -1.015625 0.0625q-0.765625 0.125 -1.578125 0.125q-0.140625 0 -0.328125 0.015625q-0.171875 0 -0.359375 0.046875q-0.203125 0.046875 -0.296875 0.15625q-0.078125 0.09375 -0.171875 0.3125q-0.0625 0.0625 -0.328125 0.546875q-0.34375 0.6875 -0.4375 0.84375q-0.640625 1.921875 -0.953125 3.9375q-0.046875 0.375 -0.046875 0.46875q0 0.359375 0.234375 0.515625q0.234375 0.140625 0.8125 0.140625q0.8125 0 1.421875 -0.171875q0.71875 -0.3125 1.078125 -0.53125q0.21875 -0.109375 0.390625 -0.21875q0.1875 -0.109375 0.25 -0.15625q0.078125 -0.15625 0.171875 -0.15625q0.1875 0 0.34375 0.390625q0 0.390625 -0.171875 0.671875q-0.171875 0.28125 -0.84375 0.671875q-1.390625 0.890625 -2.78125 0.890625q-0.390625 0 -0.71875 -0.078125zm8.084595 -0.53125q-0.234375 0.0625 -0.421875 0.0625q-0.3125 0 -0.578125 -0.0625q-0.265625 -0.0625 -0.265625 -0.15625q0 -0.078125 -0.03125 -0.09375q-0.015625 -0.03125 -0.09375 -0.03125q-0.015625 -0.03125 -0.140625 -0.125q-0.125 -0.09375 -0.296875 -0.15625q-0.203125 -0.34375 -0.203125 -0.71875q0 -0.421875 0.203125 -1.28125q0.078125 -0.765625 0.71875 -1.921875q0.65625 -1.15625 1.53125 -2.1875q0.875 -1.03125 1.578125 -1.4375q0.359375 -0.359375 0.90625 -0.359375q0.4375 0 0.8125 0.21875q0.34375 0.1875 0.703125 0.65625q0.375 0.453125 0.59375 0.921875q0.09375 0.359375 0.09375 0.703125q0 0.359375 -0.09375 1.125q-0.109375 0.4375 -0.203125 1.0625q-0.078125 0.625 -0.078125 1.078125q-0.046875 0.328125 0.046875 0.546875q0.09375 0.203125 0.265625 0.203125q0.109375 0 0.265625 -0.078125q0.234375 -0.125 0.515625 -0.125q0.265625 0 0.4375 0.15625q0.171875 0.140625 0.171875 0.421875q0 0.4375 -0.59375 0.875q-0.578125 0.421875 -1.109375 0.421875q-0.359375 0 -0.671875 -0.5625q-0.296875 -0.5625 -0.578125 -1.453125l-0.140625 -0.546875l-1.03125 0.984375l-0.5625 0.546875q-0.375 0.390625 -0.421875 0.453125q-0.265625 0.453125 -1.328125 0.859375zm0.078125 -1.40625q0.578125 -0.34375 1.40625 -1.171875q0.84375 -0.84375 1.390625 -1.609375q0.75 -0.984375 0.9375 -1.953125q-0.09375 -0.28125 -0.3125 -0.5625q-0.203125 -0.296875 -0.375 -0.328125q-0.484375 0 -1.015625 0.5625q-0.515625 0.546875 -1.25 1.53125l-0.78125 1.171875q-0.140625 0.203125 -0.515625 1.03125q-0.359375 0.828125 -0.359375 0.984375q0 0.53125 0.3125 0.53125q0.25 0 0.5625 -0.1875zm10.514618 2.0625q-0.34375 -0.09375 -0.5625 -0.21875q-0.21875 -0.125 -0.578125 -0.453125q-0.421875 -0.578125 -0.5625 -1.0625q-0.125 -0.5 -0.125 -1.578125q0 -0.578125 0.640625 -3.171875q-0.046875 0.171875 0.171875 -0.6875q0.078125 -0.265625 -0.1875 -0.328125q-0.265625 -0.078125 -0.75 -0.078125q-0.40625 0 -0.484375 -0.0625q-0.0625 -0.015625 -0.078125 -0.0625q-0.015625 -0.046875 -0.015625 -0.078125q0 -0.109375 -0.09375 -0.28125q-0.015625 -0.03125 -0.015625 -0.078125q0 -0.109375 0.125 -0.25q0.140625 -0.15625 0.328125 -0.171875q0.125 -0.03125 0.546875 -0.078125q0.4375 -0.046875 0.8125 -0.1875q0.390625 -0.15625 0.609375 -0.40625q0.3125 -0.796875 0.78125 -1.796875q0.484375 -1.0 0.65625 -1.1875q0.390625 -0.1875 0.53125 -0.1875q0.140625 0 0.234375 0.09375q0.09375 0.09375 0.265625 0.328125q0.03125 0.0625 0.125 0.1875q0.09375 0.109375 0.09375 0.234375q0 0.1875 -0.1875 0.578125q-0.171875 0.375 -0.703125 1.328125l-0.3125 0.609375q0.078125 0.015625 0.34375 0.015625q0.25 0 0.421875 -0.015625q0.53125 -0.09375 0.984375 -0.09375q0.234375 0 0.34375 0.015625q0.546875 0 0.796875 0.203125q0.25 0.203125 0.296875 0.6875q0.046875 0.265625 -0.09375 0.3125q-0.140625 0.046875 -0.8125 0.046875q-2.78125 0.125 -2.8125 0.21875q-0.09375 0.078125 -0.359375 0.84375q-0.265625 0.765625 -0.453125 1.453125q-0.3125 1.453125 -0.3125 2.546875q0 1.015625 0.28125 1.34375q0.125 0.125 0.46875 0.125q0.328125 0 0.71875 -0.125q0.40625 -0.140625 0.671875 -0.359375q0.421875 -0.359375 0.71875 -0.359375q0.140625 0 0.21875 0.09375q0.09375 0.078125 0.09375 0.203125q0 0.25 -0.296875 0.671875q-0.359375 0.546875 -0.953125 0.90625q-0.59375 0.359375 -1.15625 0.359375q-0.265625 0 -0.375 -0.046875zm6.6158447 -0.53125q-0.765625 -0.3125 -1.078125 -0.796875q-0.3125 -0.5 -0.3125 -1.390625q0 -0.421875 0.078125 -1.0l0.046875 -0.859375q0 -0.21875 -0.046875 -0.34375q-0.046875 -0.125 -0.21875 -0.265625q-0.046875 -0.046875 -0.25 -0.234375q-0.1875 -0.1875 -0.15625 -0.3125l-0.03125 -0.125q0 -0.171875 0.0625 -0.3125q0.0625 -0.140625 0.125 -0.140625q0.078125 0 0.1875 -0.03125q0.125 -0.046875 0.234375 -0.015625q0.328125 0 0.328125 0.140625q0.09375 0.1875 0.3125 0.03125q0.234375 -0.15625 0.453125 -0.609375q0.34375 -0.53125 1.0 -1.109375q0.65625 -0.59375 1.09375 -0.828125q0.171875 -0.09375 0.546875 -0.171875q0.390625 -0.09375 0.671875 -0.09375q0.4375 0 0.75 0.203125q0.328125 0.1875 0.671875 0.546875q0.453125 0.328125 0.453125 1.046875q0 0.5 -0.234375 1.03125q-0.109375 0.359375 -0.765625 0.921875q-0.65625 0.546875 -1.203125 0.765625q-0.671875 0.15625 -1.546875 0.15625q-0.5625 0 -0.734375 -0.09375q-0.296875 -0.15625 -0.40625 1.296875q-0.03125 0.171875 -0.03125 0.453125q0 0.421875 0.125 0.65625q0.015625 0.015625 0.15625 0.171875q0.15625 0.15625 0.359375 0.265625q0.21875 0.109375 0.46875 0.109375q0.21875 0 0.328125 -0.046875q0.265625 -0.0625 0.5 -0.265625q0.25 -0.21875 0.6875 -0.640625q0.375 -0.390625 0.546875 -0.53125q0.125 -0.21875 0.484375 -0.21875q0.09375 0 0.328125 0.046875q0.21875 0.171875 0.21875 0.359375q0 0.203125 -0.234375 0.71875q-0.125 0.25 -0.59375 0.671875q-0.46875 0.40625 -0.828125 0.65625q-0.75 0.40625 -1.484375 0.40625q-0.453125 0 -1.0625 -0.21875zm1.421875 -4.875q0.234375 -0.046875 0.6875 -0.109375q0.453125 -0.078125 0.75 -0.328125q0.3125 -0.25 0.71875 -0.875q0.078125 -0.1875 0.078125 -0.390625q0 -0.359375 -0.15625 -0.5q-0.15625 -0.171875 -0.375 -0.171875q-0.34375 0 -0.703125 0.296875q-0.234375 0.0625 -0.703125 0.53125q-0.46875 0.453125 -0.8125 0.90625q-0.328125 0.4375 -0.203125 0.5q-0.046875 0.078125 0.234375 0.109375q0.28125 0.03125 0.484375 0.03125z" fill-rule="nonzero"/></g></svg>